# xmcd
#
# Track frame offsets:
#	150
#	23609
#	47187
#	69094
#	91011
#	103500
#	120106
#	135827
#	150988
#	170731
#	183999
#	199752
#	215180
#	233449
#	250124
#	269040
#
# Disc length: 4132 seconds
#
# Revision: 0
# Processed by: cddbd v1.5.2PL0 Copyright (c) Steve Scherf et al.
# Submitted via: EZCDAudioConverter 2.1.7.1
#
DISCID=c7102210
DTITLE=Crowded House - Intriguer 2/2
DYEAR=1900
DGENRE=
TTITLE0=Only Way To Go Is Forwards [Live]
TTITLE1=Beautiful Life [Live]
TTITLE2=Either Side Of The World [Live]
TTITLE3=Twice If You're Lucky [Live]
TTITLE4=Bound To Rescue [Live]
TTITLE5=God Lives Over The Road [Studio Demo]
TTITLE6=Isolation [Studio Demo]
TTITLE7=Better Things [Studio Demo]
TTITLE8=Even If [Take 1]
TTITLE9=Archer's Arrows [Alternate Version]
TTITLE10=Saturday Sun [Alternate Version]
TTITLE11=The Intriguer [Studio]
TTITLE12=Turn It Around
TTITLE13=Eyes Grow Heavy
TTITLE14=Two Minutes Of Silence
TTITLE15=Nonsense Of Course
EXTD=
EXTT0=
EXTT1=
EXTT2=
EXTT3=
EXTT4=
EXTT5=
EXTT6=
EXTT7=
EXTT8=
EXTT9=
EXTT10=
EXTT11=
EXTT12=
EXTT13=
EXTT14=
EXTT15=
PLAYORDER=
